<svg version="1.1" preserveAspectRatio="none" xmlns="http://www.w3.org/2000/svg" width="500" height="500" viewBox="0 0 500 500"><rect width="100%" height="100%" fill="#EFFFE0" fill-opacity="1"/><svg viewBox="5.7469 43.0281 392.5568 235.0227" width="333" height="199.3662040754357" x="83.5px" y="150.3169px" xmlns="http://www.w3.org/2000/svg" xmlns:xlink="http://www.w3.org/1999/xlink" preserveAspectRatio="none"><defs></defs><style>.companyName {fill:#313131;fill-opacity:1;}.icon1 {fill:#313131;fill-opacity:1;}.icon2 {fill:#C2EF7E;fill-opacity:1;}.icon3 {fill:#6B7D3B;fill-opacity:1;}.icon3-str {stroke:#6B7D3B;stroke-opacity:1;}</style><g opacity="1" transform="rotate(0 5.7469 240.0508)">
<svg width="392.5568" height="38" x="5.7469" y="240.0508" version="1.1" preserveAspectRatio="none" viewBox="-0.44 -31.2 326.44 31.6">
  <g transform="matrix(1 0 0 1 0 0)" class="companyName"><path id="id-D6z1nYkh10" d="M28-24L33.36-6.04L39.60-23.40Q40.16-24.96 40.40-25.88Q40.64-26.80 40.64-27.48L40.64-27.48Q40.64-28.52 39.98-28.90Q39.32-29.28 37.64-29.28L37.64-29.28L37.64-30.80L47.36-30.80L47.36-29.28Q45.52-29.28 44.58-28.52Q43.64-27.76 43-26.04L43-26.04L32.96 0.40L31.56 0.40L23.88-22.36L15.36 0.40L13.96 0.40L5.64-22.56Q4.92-24.48 4.34-25.78Q3.76-27.08 3.10-27.84Q2.44-28.60 1.60-28.92Q0.76-29.24-0.44-29.24L-0.44-29.24L-0.44-30.80L12.60-30.80L12.60-29.24Q10.56-29.24 9.74-28.88Q8.92-28.52 8.92-27.48L8.92-27.48Q8.92-26.96 9.08-26.28Q9.24-25.60 9.56-24.68L9.56-24.68L15.64-6.16L20.56-20Q21.12-21.56 21.66-22.90Q22.20-24.24 22.52-25.32L22.52-25.32Q21.96-26.48 21.50-27.24Q21.04-28 20.58-28.44Q20.12-28.88 19.62-29.06Q19.12-29.24 18.56-29.24L18.56-29.24L18.56-30.80L30.80-30.80L30.80-29.24Q29.64-29.24 28.92-29.16Q28.20-29.08 27.82-28.90Q27.44-28.72 27.30-28.40Q27.16-28.08 27.16-27.64L27.16-27.64Q27.16-27.04 27.38-26.18Q27.60-25.32 28-24L28-24Z M65.32-6.84L63.68-11.16L53-11.16Q52.32-9.52 51.84-8.26Q51.36-7 51.06-6.08Q50.76-5.16 50.64-4.52Q50.52-3.88 50.52-3.48L50.52-3.48Q50.52-2.36 51.24-1.94Q51.96-1.52 53.64-1.52L53.64-1.52L53.64 0L43.92 0L43.92-1.52Q44.84-1.64 45.50-1.84Q46.16-2.04 46.66-2.40Q47.16-2.76 47.54-3.34Q47.92-3.92 48.28-4.76L48.28-4.76L58.68-30.80L60.40-30.80L69.48-8.24Q70.40-6 71.08-4.66Q71.76-3.32 72.40-2.64Q73.04-1.96 73.78-1.76Q74.52-1.56 75.56-1.56L75.56-1.56L75.56 0L62.52 0L62.52-1.56Q64.64-1.56 65.44-1.96Q66.24-2.36 66.24-3.28L66.24-3.28Q66.24-3.68 66.20-4.02Q66.16-4.36 66.06-4.76Q65.96-5.16 65.78-5.66Q65.60-6.16 65.32-6.84L65.32-6.84ZM58.48-24.96L53.80-13.16L62.92-13.16L58.48-24.96Z M105.20 0.40L102.80 0.40L83.80-24.64L83.64-24.64L83.64-7.56Q83.64-5.56 83.78-4.40Q83.92-3.24 84.34-2.60Q84.76-1.96 85.54-1.76Q86.32-1.56 87.60-1.52L87.60-1.52L87.60 0L76.84 0L76.84-1.52Q78.24-1.56 79.10-1.78Q79.96-2 80.44-2.60Q80.92-3.20 81.08-4.30Q81.24-5.40 81.24-7.28L81.24-7.28L81.24-23.52Q81.24-25.20 81.10-26.30Q80.96-27.40 80.54-28.04Q80.12-28.68 79.32-28.94Q78.52-29.20 77.24-29.28L77.24-29.28L77.24-30.80L85.16-30.80L102.64-7.48L102.80-7.48L102.80-23.24Q102.80-25.20 102.66-26.38Q102.52-27.56 102.10-28.20Q101.68-28.84 100.90-29.04Q100.12-29.24 98.84-29.28L98.84-29.28L98.84-30.80L109.60-30.80L109.60-29.28Q108.20-29.24 107.34-29.02Q106.48-28.80 106-28.20Q105.52-27.60 105.36-26.48Q105.20-25.36 105.20-23.52L105.20-23.52L105.20 0.40Z M128.28 0L112.64 0L112.64-1.52Q114.16-1.56 115.10-1.74Q116.04-1.92 116.56-2.42Q117.08-2.92 117.26-3.78Q117.44-4.64 117.44-6.08L117.44-6.08L117.44-24.72Q117.44-26.12 117.30-26.98Q117.16-27.84 116.74-28.34Q116.32-28.84 115.52-29.02Q114.72-29.20 113.44-29.28L113.44-29.28L113.44-30.80L127.48-30.80Q131.08-30.80 134.14-29.60Q137.20-28.40 139.42-26.28Q141.64-24.16 142.88-21.24Q144.12-18.32 144.12-14.88L144.12-14.88Q144.12-11.60 142.96-8.86Q141.80-6.12 139.70-4.16Q137.60-2.20 134.68-1.10Q131.76 0 128.28 0L128.28 0ZM127.40-28.84L122.32-28.84Q121.64-28.84 121.64-28.16L121.64-28.16L121.64-6.52Q121.64-1.96 127.60-1.96L127.60-1.96Q133.08-1.96 136-5.22Q138.92-8.48 138.92-14.80L138.92-14.80Q138.92-18.12 138.12-20.72Q137.32-23.32 135.82-25.12Q134.32-26.92 132.20-27.88Q130.08-28.84 127.40-28.84L127.40-28.84Z M156.36-28.40L156.36-16.92Q158.52-16.92 159.98-17.18Q161.44-17.44 162.30-18Q163.16-18.56 163.54-19.44Q163.92-20.32 163.92-21.52L163.92-21.52L165.32-21.52L165.32-10.60L163.92-10.60Q163.92-11.80 163.58-12.68Q163.24-13.56 162.38-14.14Q161.52-14.72 160.06-15.02Q158.60-15.32 156.36-15.32L156.36-15.32L156.36-6.28Q156.36-4.96 156.68-4.10Q157.00-3.24 157.78-2.70Q158.56-2.16 159.84-1.94Q161.12-1.72 163.00-1.72L163.00-1.72Q165.12-1.72 166.60-2.02Q168.08-2.32 169.08-3.04Q170.08-3.76 170.68-4.94Q171.28-6.12 171.68-7.88L171.68-7.88L173.20-7.88L172.60 0L147.76 0L147.76-1.52Q149.16-1.56 150.02-1.76Q150.88-1.96 151.36-2.44Q151.84-2.92 152.00-3.80Q152.16-4.68 152.16-6.08L152.16-6.08L152.16-24.72Q152.16-26.12 152.02-26.98Q151.88-27.84 151.46-28.34Q151.04-28.84 150.24-29.02Q149.44-29.20 148.16-29.28L148.16-29.28L148.16-30.80L171.28-30.80L171.64-23.76L170.24-23.76Q170.00-25.36 169.46-26.38Q168.92-27.40 167.98-28Q167.04-28.60 165.60-28.84Q164.16-29.08 162.12-29.08L162.12-29.08L157.04-29.08Q156.36-29.08 156.36-28.40L156.36-28.40Z M201.32-23.08L201.32-23.08Q201.32-19.88 199.40-17.76Q197.48-15.64 193.28-14.92L193.28-14.92L202.12-4.28Q203.20-2.96 204.50-2.38Q205.80-1.80 207.60-1.52L207.60-1.52L207.60 0L199.88 0L190.08-12.56Q189.56-13.24 189.10-13.64Q188.64-14.04 188.14-14.26Q187.64-14.48 186.98-14.54Q186.32-14.60 185.40-14.60L185.40-14.60L185.40-6.28Q185.40-4.80 185.58-3.86Q185.76-2.92 186.34-2.40Q186.92-1.88 188.02-1.70Q189.12-1.52 190.92-1.52L190.92-1.52L190.92 0L176.80 0L176.80-1.52Q178.20-1.56 179.06-1.76Q179.92-1.96 180.40-2.44Q180.88-2.92 181.04-3.80Q181.20-4.68 181.20-6.08L181.20-6.08L181.20-24.72Q181.20-26.12 181.06-26.98Q180.92-27.84 180.50-28.34Q180.08-28.84 179.28-29.02Q178.48-29.20 177.20-29.28L177.20-29.28L177.20-30.80L189.76-30.80Q195.28-30.80 198.30-28.76Q201.32-26.72 201.32-23.08ZM185.40-28.24L185.40-16.60L188.24-16.60Q192.24-16.60 194.18-18.06Q196.12-19.52 196.12-22.88L196.12-22.88Q196.12-26.12 194.58-27.52Q193.04-28.92 189.76-28.92L189.76-28.92L186.08-28.92Q185.40-28.92 185.40-28.24L185.40-28.24Z M234.76-7.88L234.16 0L208.32 0L208.32-1.52Q209.72-1.56 210.58-1.76Q211.44-1.96 211.92-2.44Q212.40-2.92 212.56-3.80Q212.72-4.68 212.72-6.08L212.72-6.08L212.72-24.72Q212.72-26.12 212.58-26.98Q212.44-27.84 212.02-28.34Q211.60-28.84 210.80-29.02Q210.00-29.20 208.72-29.28L208.72-29.28L208.72-30.80L220.88-30.80L220.88-29.28Q219.60-29.24 218.82-29.04Q218.04-28.84 217.62-28.32Q217.20-27.80 217.06-26.88Q216.92-25.96 216.92-24.44L216.92-24.44L216.92-7.20Q216.92-5.52 217.26-4.46Q217.60-3.40 218.42-2.82Q219.24-2.24 220.60-2.02Q221.96-1.80 224.04-1.80L224.04-1.80Q226.32-1.80 227.88-2.06Q229.44-2.32 230.50-2.98Q231.56-3.64 232.18-4.82Q232.80-6 233.24-7.88L233.24-7.88L234.76-7.88Z M263.72-20.48L263.72-12.40Q263.72-9.24 263.10-6.84Q262.48-4.44 261.10-2.84Q259.72-1.24 257.52-0.42Q255.32 0.40 252.20 0.40L252.20 0.40Q249.24 0.40 247.04-0.18Q244.84-0.76 243.36-2.10Q241.88-3.44 241.16-5.60Q240.44-7.76 240.44-10.92L240.44-10.92L240.44-21.48Q240.44-24.44 240.30-26.04Q240.16-27.64 239.48-28.40L239.48-28.40Q239-28.92 238.18-29.10Q237.36-29.28 236-29.28L236-29.28L236-30.80L249.64-30.80L249.64-29.28Q248.28-29.28 247.44-29.12Q246.60-28.96 246.12-28.32L246.12-28.32Q245.56-27.60 245.40-26.02Q245.24-24.44 245.24-21.48L245.24-21.48L245.24-10.60Q245.24-8.56 245.66-6.98Q246.08-5.40 247.04-4.30Q248-3.20 249.54-2.64Q251.08-2.08 253.32-2.08L253.32-2.08Q257.32-2.08 259.32-4.30Q261.32-6.52 261.32-10.84L261.32-10.84L261.32-20.48Q261.32-24.04 261.04-25.88Q260.76-27.72 260-28.48L260-28.48Q259.44-29 258.60-29.14Q257.76-29.28 256.52-29.28L256.52-29.28L256.52-30.80L268.12-30.80L268.12-29.28Q266.84-29.28 266.02-29.08Q265.20-28.88 264.72-28.20L264.72-28.20Q264.12-27.36 263.92-25.58Q263.72-23.80 263.72-20.48L263.72-20.48Z M271.96-0.44L271.36-9.40L272.84-9.40Q273.12-7.60 273.90-6.16Q274.68-4.72 275.86-3.72Q277.04-2.72 278.58-2.18Q280.12-1.64 281.92-1.64L281.92-1.64Q284.88-1.64 286.60-3.04Q288.32-4.44 288.32-6.84L288.32-6.84Q288.32-7.84 287.98-8.68Q287.64-9.52 286.84-10.30Q286.04-11.08 284.70-11.84Q283.36-12.60 281.32-13.48L281.32-13.48Q278.84-14.56 277.16-15.56Q275.48-16.56 274.48-17.64Q273.48-18.72 273.06-19.94Q272.64-21.16 272.64-22.72L272.64-22.72Q272.64-24.56 273.30-26.12Q273.96-27.68 275.16-28.82Q276.36-29.96 278.00-30.58Q279.64-31.20 281.60-31.20L281.60-31.20Q283.36-31.20 284.88-30.64Q286.40-30.08 287.96-28.84L287.96-28.84L289.00-30.64L289.92-30.64L290.36-22.68L288.88-22.68Q287.92-25.96 286.10-27.56Q284.28-29.16 281.72-29.16L281.72-29.16Q279.28-29.16 277.84-27.96Q276.40-26.76 276.40-24.72L276.40-24.72Q276.40-23.76 276.72-22.98Q277.04-22.20 277.76-21.50Q278.48-20.80 279.64-20.10Q280.80-19.40 282.52-18.64L282.52-18.64Q285.48-17.32 287.44-16.18Q289.40-15.04 290.56-13.90Q291.72-12.76 292.20-11.50Q292.68-10.24 292.68-8.68L292.68-8.68Q292.68-6.68 291.88-5Q291.08-3.32 289.64-2.12Q288.20-0.92 286.20-0.26Q284.20 0.40 281.80 0.40L281.80 0.40Q279.52 0.40 277.70-0.24Q275.88-0.88 274.00-2.40L274.00-2.40L272.88-0.44L271.96-0.44Z M325.60-30.80L326-23.16L324.36-23.16Q324.24-24.88 323.80-26.04Q323.36-27.20 322.54-27.86Q321.72-28.52 320.48-28.80Q319.24-29.08 317.52-29.08L317.52-29.08Q316.04-29.08 315.14-29.02Q314.24-28.96 313.76-28.80Q313.28-28.64 313.14-28.42Q313-28.20 313-27.84L313-27.84L313-6.44Q313-5.16 313.18-4.24Q313.36-3.32 313.90-2.74Q314.44-2.16 315.46-1.86Q316.48-1.56 318.16-1.52L318.16-1.52L318.16 0L303.04 0L303.04-1.52Q304.72-1.56 305.76-1.86Q306.80-2.16 307.34-2.74Q307.88-3.32 308.06-4.24Q308.24-5.16 308.24-6.44L308.24-6.44L308.24-27.84Q308.24-28.20 308.10-28.42Q307.96-28.64 307.54-28.80Q307.12-28.96 306.36-29.02Q305.60-29.08 304.32-29.08L304.32-29.08Q302.76-29.08 301.42-28.96Q300.08-28.84 299.10-28.26Q298.12-27.68 297.52-26.48Q296.92-25.28 296.88-23.16L296.88-23.16L295.40-23.16L295.40-30.80L325.60-30.80Z"/></g>
</svg>
</g><g opacity="1" transform="rotate(0 123.514 43.0281)">
<svg width="157.0227" height="157.0227" x="123.514" y="43.0281" version="1.1" preserveAspectRatio="none" viewBox="20 20 160 160">
  <g transform="matrix(1 0 0 1 0 0)"><g><path d="M100 180c-44.1 0-80-35.9-80-80s35.9-80 80-80c8.1 0 16.1 1.2 23.8 3.6.8.2 1.2 1.1 1 1.9-.2.8-1.1 1.2-1.9 1-7.4-2.3-15.1-3.5-22.9-3.5-42.5 0-77 34.6-77 77s34.6 77 77 77 77-34.6 77-77c0-20.6-8-39.9-22.6-54.5-.6-.6-.6-1.5 0-2.1.6-.6 1.5-.6 2.1 0C171.7 58.5 180 78.6 180 100c0 44.1-35.9 80-80 80z" data-color="1" class="icon1"></path><path d="M29.5 136c-.8 0-1.5-.7-1.5-1.5 0-.3.1-.5.2-.8l15.7-25.1c.3-.4.7-.7 1.3-.7.5 0 1 .3 1.3.7l14 23.4c.4.7.2 1.6-.5 2-.7.4-1.6.2-2-.5l-12.8-21.3-14.4 23.1c-.4.4-.8.7-1.3.7z" data-color="1" class="icon1"></path><path d="M135.1 122.4c-.8 0-1.5-.7-1.5-1.5 0-.3.1-.5.2-.8l23.3-38.6c.4-.7 1.3-.9 2-.5.2.1.4.3.5.5l18.9 31.3c.4.7.2 1.6-.5 2-.7.4-1.6.2-2-.5l-17.7-29.2-22 36.5c-.2.6-.7.8-1.2.8z" data-color="1" class="icon1"></path><path d="M155 157.8c-.5 0-1-.3-1.3-.7L100 68.2l-53.6 88.7c-.4.7-1.3.9-2 .5s-.9-1.3-.5-2l54.9-90.8c.4-.7 1.3-.9 2-.5.2.1.4.3.5.5l55 91c.4.7.2 1.6-.5 2-.3.1-.6.2-.8.2z" data-color="1" class="icon1"></path><path d="M145.7 56.8c-9.6 0-17.4-7.8-17.4-17.4S136.1 22 145.7 22c2.8 0 5.5.6 8 1.9.7.4 1 1.3.6 2-.1.3-.4.5-.6.6-4.9 2.5-7.9 7.4-7.9 12.9s3 10.4 7.9 12.9c.7.4 1 1.3.6 2-.1.3-.4.5-.6.6-2.5 1.2-5.3 1.9-8 1.9zm0-31.9c-8 0-14.5 6.5-14.5 14.5s6.5 14.5 14.5 14.5c1.4 0 2.7-.2 4-.6-4.3-3.3-6.9-8.4-6.9-13.9s2.6-10.6 6.9-13.9c-1.3-.5-2.7-.6-4-.6z" data-color="1" class="icon1"></path><path d="M124.3 176.2c-.5 0-1-.3-1.3-.8l-25.4-47.6c-.2-.4-.2-.8-.1-1.2.1-.4.4-.7.8-.9l10.3-4.1-9.9-18.3c-.4-.7-.1-1.6.6-2 .3-.2.6-.2.9-.2l9.7 1.5-11.3-36.9c-.3-.8.2-1.6.9-1.9s1.6.2 1.9.9v.1l12.1 39.1c.2.8-.2 1.6-1 1.8-.2.1-.4.1-.7 0l-9.1-1.4 9.2 17.1c.4.7.1 1.6-.6 2 0 0-.1 0-.2.1l-10.3 4.1 24.6 46.2c.4.7.1 1.6-.6 2-.1.3-.3.4-.5.4z" data-color="1" class="icon1"></path><path d="M165.6 142.7c-.6 0-1.2-.4-1.4-1l-9.4-24.8c-.3-.8.1-1.6.9-1.9.2-.1.3-.1.5-.1h7.6l-6.9-32.2c-.2-.8.3-1.6 1.1-1.8.8-.2 1.6.3 1.8 1.1l7.3 34c.1.4 0 .9-.3 1.2-.3.3-.7.5-1.1.5h-7.3l8.7 22.8c.3.8-.1 1.6-.9 1.9-.2.3-.4.3-.6.3z" data-color="1" class="icon1"></path><path d="M49.2 150.8c-.6 0-1.2-.4-1.4-1l-5.9-17.6c-.3-.8.2-1.6.9-1.9.2-.1.3-.1.5-.1h4.5l-4.1-20.6c-.2-.8.4-1.6 1.2-1.7.8-.2 1.6.3 1.7 1.1l4.5 22.4c.2.8-.4 1.6-1.2 1.7h-4.5l5.2 15.6c.3.8-.2 1.6-.9 1.9-.2.2-.3.2-.5.2z" data-color="1" class="icon1"></path><path d="M116.6 31.9h-3.9c-.8 0-1.5-.7-1.5-1.5s.7-1.5 1.5-1.5h3.9c.8 0 1.5.7 1.5 1.5s-.7 1.5-1.5 1.5z" data-color="1" class="icon1"></path><path d="M106.5 31.9h-8.9c-.8 0-1.5-.7-1.5-1.5s.7-1.5 1.5-1.5h8.9c.8 0 1.5.7 1.5 1.5s-.6 1.5-1.5 1.5z" data-color="1" class="icon1"></path><path d="M92.8 31.9H79.4c-.8 0-1.5-.7-1.5-1.5s.7-1.5 1.5-1.5h13.4c.8 0 1.5.7 1.5 1.5s-.7 1.5-1.5 1.5z" data-color="1" class="icon1"></path><path d="M129 39.3h-9c-.8 0-1.5-.7-1.5-1.5s.7-1.5 1.5-1.5h8.9c.8 0 1.5.7 1.4 1.5.1.8-.5 1.4-1.3 1.5z" data-color="1" class="icon1"></path><path d="M114.6 39.2c-8.2 0-16.4-.1-24.5-.1-.8 0-1.5-.7-1.5-1.5s.7-1.5 1.5-1.5c8.2 0 16.4 0 24.5.1.8 0 1.5.7 1.5 1.5-.1.8-.7 1.5-1.5 1.5z" data-color="1" class="icon1"></path><path d="M53 39.1c-.8 0-1.5-.7-1.5-1.5s.7-1.5 1.5-1.5h26.8c.8 0 1.5.7 1.5 1.5s-.7 1.5-1.5 1.5H53z" data-color="1" class="icon1"></path><path d="M105.1 46.8c-.8 0-1.5-.7-1.5-1.5s.7-1.5 1.5-1.5c6.4 0 12.8 0 19.2-.1.8 0 1.5.7 1.5 1.5s-.7 1.5-1.5 1.5c-6.4 0-12.8.1-19.2.1z" data-color="1" class="icon1"></path><path d="M79.1 46.9c-.8 0-1.5-.7-1.5-1.5s.7-1.5 1.5-1.5h20.5c.8 0 1.5.7 1.5 1.5s-.7 1.5-1.5 1.5c-6.8-.1-13.7 0-20.5 0z" data-color="1" class="icon1"></path><path d="M66.8 46.9c-.8 0-1.5-.7-1.5-1.5s.7-1.5 1.5-1.5h6.9c.8 0 1.5.7 1.5 1.5s-.7 1.5-1.5 1.5h-6.9z" data-color="1" class="icon1"></path><path d="M61.3 46.9H44.8c-.8 0-1.5-.7-1.5-1.5s.7-1.5 1.5-1.5h16.5c.8 0 1.5.7 1.5 1.5s-.7 1.5-1.5 1.5z" data-color="1" class="icon1"></path><path d="M161.3 53.8h-3.4c-.8 0-1.5-.7-1.5-1.5s.7-1.5 1.5-1.5h3.4c.8 0 1.5.7 1.5 1.5 0 .9-.7 1.5-1.5 1.5z" data-color="1" class="icon1"></path><path d="M136.4 53.8h-6.9c-.8 0-1.5-.7-1.5-1.5s.7-1.5 1.5-1.5h6.9c.8 0 1.5.7 1.5 1.5 0 .9-.7 1.5-1.5 1.5z" data-color="1" class="icon1"></path><path d="M124 53.8h-9.7c-.8 0-1.5-.7-1.5-1.5s.7-1.5 1.5-1.5h9.7c.8 0 1.5.7 1.5 1.5 0 .9-.6 1.5-1.5 1.5z" data-color="1" class="icon1"></path><path d="M109 53.8H91.3c-.8 0-1.5-.7-1.5-1.5s.7-1.5 1.5-1.5H109c.8 0 1.5.7 1.5 1.5-.1.9-.7 1.5-1.5 1.5z" data-color="1" class="icon1"></path><path d="M85.2 53.8h-5.4c-.8 0-1.5-.7-1.5-1.5s.7-1.5 1.5-1.5h5.4c.8 0 1.5.7 1.5 1.5-.1.9-.7 1.5-1.5 1.5z" data-color="1" class="icon1"></path><path d="M74.3 53.8H64.2c-.8 0-1.5-.7-1.5-1.5s.7-1.5 1.5-1.5h10.1c.8 0 1.5.7 1.5 1.5 0 .9-.7 1.5-1.5 1.5z" data-color="1" class="icon1"></path><path d="M59.1 53.8H38.7c-.8 0-1.5-.7-1.5-1.5s.7-1.5 1.5-1.5h20.4c.8 0 1.5.7 1.5 1.5 0 .9-.7 1.5-1.5 1.5z" data-color="1" class="icon1"></path><path d="M156.6 61c-.8 0-1.5-.6-1.5-1.5 0-.8.6-1.5 1.5-1.5 3.3-.1 6.5-.1 9.8-.2.8-.1 1.5.6 1.5 1.5 0 .8-.6 1.5-1.5 1.5-3.3.1-6.5.2-9.8.2z" data-color="1" class="icon1"></path><path d="M151 61c-4.7 0-9.4-.1-14.1-.1-.8 0-1.5-.7-1.5-1.5s.7-1.5 1.5-1.5c4.7 0 9.4.1 14.1.1.8 0 1.5.7 1.5 1.5s-.7 1.5-1.5 1.5z" data-color="1" class="icon1"></path><path d="M131.6 60.9c-3.7 0-7.3 0-10.9-.1-.8 0-1.5-.7-1.5-1.5s.7-1.5 1.5-1.5c3.6 0 7.3 0 10.9.1.8 0 1.5.7 1.5 1.5 0 .9-.7 1.5-1.5 1.5z" data-color="1" class="icon1"></path><path d="M115.2 60.9H109c-.8 0-1.5-.7-1.5-1.5s.7-1.5 1.5-1.5h6.2c.8 0 1.5.7 1.5 1.5s-.7 1.5-1.5 1.5z" data-color="1" class="icon1"></path><path d="M103.5 60.8h-4.1c-.8 0-1.5-.7-1.5-1.5s.7-1.5 1.5-1.5h4.1c.8 0 1.5.7 1.5 1.5 0 .9-.7 1.5-1.5 1.5z" data-color="1" class="icon1"></path><path d="M93.9 60.8H80.3c-.8 0-1.5-.7-1.5-1.5s.7-1.5 1.5-1.5h13.6c.8 0 1.5.7 1.5 1.5-.1.8-.7 1.5-1.5 1.5z" data-color="1" class="icon1"></path><path d="M74.8 60.8h-6.9c-.8 0-1.5-.7-1.5-1.5s.7-1.5 1.5-1.5h6.9c.8 0 1.5.7 1.4 1.5 0 .8-.6 1.4-1.4 1.5z" data-color="1" class="icon1"></path><path d="M47.4 60.8c-.8 0-1.5-.7-1.5-1.5s.7-1.5 1.5-1.5h11c.8 0 1.5.7 1.5 1.5s-.7 1.5-1.5 1.5h-11z" data-color="1" class="icon1"></path><path d="M33.7 60.8c-.8 0-1.5-.7-1.5-1.5s.7-1.5 1.5-1.5h8.2c.8 0 1.5.7 1.5 1.5s-.7 1.5-1.5 1.5h-8.2z" data-color="1" class="icon1"></path><path d="M160.6 68.5c-.8 0-1.5-.7-1.5-1.5s.7-1.5 1.5-1.5h4.8c.8 0 1.5.7 1.5 1.5s-.7 1.5-1.5 1.5h-4.8z" data-color="1" class="icon1"></path><path d="M150.3 68.6c-.8 0-1.5-.7-1.5-1.5s.7-1.5 1.5-1.5h4.8c.8 0 1.5.7 1.5 1.5s-.7 1.5-1.5 1.5h-4.8z" data-color="1" class="icon1"></path><path d="M137.9 68.6c-.8 0-1.5-.7-1.5-1.5s.7-1.5 1.5-1.5h6.9c.8 0 1.5.7 1.5 1.5s-.7 1.5-1.5 1.5h-6.9z" data-color="1" class="icon1"></path><path d="M133.1 68.6h-14.5c-.8 0-1.5-.7-1.5-1.5s.7-1.5 1.5-1.5h14.5c.8 0 1.5.7 1.5 1.5s-.7 1.5-1.5 1.5z" data-color="1" class="icon1"></path><path d="M113.3 68.6h-6c-.8 0-1.5-.7-1.5-1.5s.7-1.5 1.5-1.5h6c.8 0 1.5.7 1.5 1.5s-.7 1.5-1.5 1.5z" data-color="1" class="icon1"></path><path d="M93.8 68.5h-10c-.8 0-1.5-.7-1.5-1.5s.7-1.5 1.5-1.5h10c.8 0 1.5.7 1.5 1.5s-.7 1.5-1.5 1.5z" data-color="1" class="icon1"></path><path d="M78.4 68.5c-5.4 0-10.8 0-16.2-.1-.8 0-1.5-.7-1.5-1.5s.7-1.5 1.5-1.5c5.4 0 10.8 0 16.2.1.8 0 1.5.7 1.5 1.5s-.7 1.5-1.5 1.5z" data-color="1" class="icon1"></path><path d="M62.2 68.4c-2 0-9.5 0-11.5-.1-.8 0-1.5-.7-1.5-1.5s.7-1.5 1.5-1.5c2 0 9.5 0 11.5.1.8 0 1.5.7 1.5 1.5s-.7 1.5-1.5 1.5z" data-color="1" class="icon1"></path><path d="M45.2 68.3h-4.1c-.8 0-1.5-.7-1.5-1.5s.7-1.5 1.5-1.5h4.1c.8 0 1.5.7 1.5 1.5s-.7 1.5-1.5 1.5z" data-color="1" class="icon1"></path><path d="M28.8 68.4c-.8 0-1.5-.6-1.5-1.5 0-.8.6-1.5 1.5-1.5 2.2 0 4.4-.1 6.7-.2.8 0 1.5.6 1.5 1.5 0 .8-.6 1.5-1.4 1.5-2.3.1-4.5.2-6.8.2z" data-color="1" class="icon1"></path><path d="M173.4 75.5h-4.8c-.8 0-1.5-.7-1.5-1.5s.7-1.5 1.5-1.5h4.8c.8 0 1.5.7 1.5 1.5s-.7 1.5-1.5 1.5z" data-color="1" class="icon1"></path><path d="M162.6 75.5h-10.1c-.8 0-1.5-.7-1.5-1.5s.7-1.5 1.5-1.5h10.1c.8 0 1.5.7 1.5 1.5s-.7 1.5-1.5 1.5z" data-color="1" class="icon1"></path><path d="M147.4 75.5H135c-.8 0-1.5-.7-1.5-1.5s.7-1.5 1.5-1.5h12.4c.8 0 1.5.7 1.5 1.5s-.7 1.5-1.5 1.5z" data-color="1" class="icon1"></path><path d="M137 75.5h-12.3c-.8 0-1.5-.7-1.5-1.5s.7-1.5 1.5-1.5H137c.8 0 1.5.7 1.5 1.5s-.7 1.5-1.5 1.5z" data-color="1" class="icon1"></path><path d="M118.5 75.5h-8c-.8 0-1.5-.7-1.5-1.5s.7-1.5 1.5-1.5h8c.8 0 1.5.7 1.5 1.5s-.6 1.5-1.5 1.5z" data-color="1" class="icon1"></path><path d="M86.3 75.5H75.1c-.8 0-1.5-.7-1.5-1.5s.7-1.5 1.5-1.5h11.2c.8 0 1.5.7 1.5 1.5s-.6 1.5-1.5 1.5z" data-color="1" class="icon1"></path><path d="M69.6 75.5H50.3c-.8 0-1.5-.7-1.5-1.5s.7-1.5 1.5-1.5h19.3c.8 0 1.5.7 1.5 1.5s-.7 1.5-1.5 1.5z" data-color="1" class="icon1"></path><path d="M44.8 75.5H32.4c-.8 0-1.5-.7-1.5-1.5s.7-1.5 1.5-1.5h12.4c.8 0 1.5.7 1.5 1.5s-.7 1.5-1.5 1.5z" data-color="1" class="icon1"></path><path d="M168.6 82.6c-.8 0-1.5-.7-1.4-1.5 0-.8.6-1.4 1.4-1.4 2.3 0 4.5-.1 6.8-.1.8 0 1.5.6 1.5 1.4 0 .8-.7 1.5-1.5 1.5-2.3 0-4.5 0-6.8.1z" data-color="1" class="icon1"></path><path d="M152.9 82.7h-8.2v-3h8.2c.8 0 1.5.7 1.5 1.5 0 .9-.7 1.5-1.5 1.5zm-8.3-1.5v-1.5 1.5z" data-color="1" class="icon1"></path><path d="M139.2 82.6h-21.7c-.8 0-1.5-.7-1.4-1.5 0-.8.7-1.4 1.4-1.4h21.6c.8 0 1.5.7 1.5 1.5s-.6 1.4-1.4 1.4z" data-color="1" class="icon1"></path><path d="M119.1 82.5h-4c-.8 0-1.5-.7-1.5-1.5s.7-1.5 1.5-1.5h4c.8 0 1.5.7 1.5 1.5 0 .9-.7 1.5-1.5 1.5z" data-color="1" class="icon1"></path><path d="M88.4 82.5h-4.1c-.8 0-1.5-.7-1.5-1.5s.7-1.5 1.5-1.5h4.1c.8 0 1.5.7 1.5 1.5s-.7 1.5-1.5 1.5z" data-color="1" class="icon1"></path><path d="M78.8 82.4h-8.9c-.8 0-1.5-.7-1.5-1.5s.7-1.5 1.5-1.5h8.9c.8 0 1.5.7 1.5 1.5-.1.9-.7 1.5-1.5 1.5z" data-color="1" class="icon1"></path><path d="M54 82.5c-.8 0-1.5-.7-1.5-1.5s.7-1.5 1.5-1.5h11c.8 0 1.5.7 1.5 1.5s-.7 1.5-1.5 1.5H54z" data-color="1" class="icon1"></path><path d="M24.2 82.5c-.8 0-1.5-.7-1.5-1.5s.7-1.5 1.5-1.5h24.3c.8 0 1.5.7 1.5 1.5s-.7 1.5-1.5 1.5H24.2z" data-color="1" class="icon1"></path><path d="M161.2 90c-.8 0-1.5-.7-1.5-1.5s.7-1.5 1.5-1.5h8.1c.8 0 1.5.7 1.5 1.5s-.7 1.5-1.5 1.5h-8.1z" data-color="1" class="icon1"></path><path d="M135.4 90.1c-.8 0-1.5-.7-1.5-1.5s.7-1.5 1.5-1.5h13.4c.8 0 1.5.7 1.5 1.5s-.7 1.5-1.5 1.5h-13.4z" data-color="1" class="icon1"></path><path d="M123.8 90.2c-.8 0-1.5-.7-1.5-1.5s.7-1.5 1.5-1.5h6.2c.8 0 1.5.7 1.5 1.5s-.7 1.5-1.5 1.5h-6.2z" data-color="1" class="icon1"></path><path d="M114.7 90.2c-.8 0-1.5-.7-1.5-1.5s.7-1.5 1.5-1.5h3.5c.8 0 1.5.6 1.5 1.5 0 .8-.6 1.5-1.5 1.5h-3.5z" data-color="1" class="icon1"></path><path d="M76.5 90.2h-1.4c-.8 0-1.5-.7-1.5-1.5s.7-1.5 1.5-1.5H84c.8 0 1.5.7 1.5 1.5s-.7 1.5-1.5 1.5h-7.5z" data-color="1" class="icon1"></path><path d="M69.6 90.2H62c-.8 0-1.5-.7-1.5-1.5s.7-1.5 1.5-1.5h7.6c.8 0 1.5.7 1.5 1.5 0 .9-.6 1.5-1.5 1.5z" data-color="1" class="icon1"></path><path d="M55.9 90.2h-5.5c-.8 0-1.5-.7-1.5-1.5s.7-1.5 1.5-1.5h5.5v3z" data-color="1" class="icon1"></path><path d="M44.2 90.2h-8.3c-.8 0-1.5-.7-1.5-1.5s.7-1.5 1.5-1.5h8.3c.8 0 1.5.7 1.5 1.5-.1.8-.7 1.5-1.5 1.5z" data-color="1" class="icon1"></path><path d="M29.7 90.1h-5.5c-.8 0-1.5-.7-1.5-1.5s.7-1.5 1.5-1.5h5.5c.8 0 1.5.7 1.5 1.5 0 .9-.7 1.5-1.5 1.5z" data-color="1" class="icon1"></path><path d="M149.2 97.2h-5c-.8 0-1.5-.7-1.5-1.5s.7-1.5 1.5-1.5h5c.8 0 1.5.7 1.5 1.5s-.7 1.5-1.5 1.5z" data-color="1" class="icon1"></path><path d="M138.7 97.2h-4.1c-.8 0-1.5-.7-1.5-1.5s.7-1.5 1.5-1.5h4.1c.8 0 1.5.7 1.5 1.5s-.7 1.5-1.5 1.5z" data-color="1" class="icon1"></path><path d="M177.5 97.2h-4.1c-.8 0-1.5-.7-1.5-1.5s.7-1.5 1.5-1.5h4.1c.8 0 1.5.7 1.5 1.5s-.7 1.5-1.5 1.5z" data-color="1" class="icon1"></path><path d="M134.5 97.2h-11.9c-.8 0-1.5-.7-1.5-1.5s.7-1.5 1.5-1.5h11.9c.8 0 1.5.7 1.5 1.5s-.6 1.5-1.5 1.5z" data-color="1" class="icon1"></path><path d="M75.2 97.2h-4.8c-.8 0-1.5-.7-1.5-1.5s.7-1.5 1.5-1.5h4.8c.8 0 1.5.7 1.5 1.5s-.7 1.5-1.5 1.5z" data-color="1" class="icon1"></path><path d="M65 97.2h-8.1c-.8 0-1.5-.7-1.5-1.5s.7-1.5 1.5-1.5H65c.8 0 1.5.7 1.5 1.5s-.7 1.5-1.5 1.5z" data-color="1" class="icon1"></path><path d="M59.1 97.2H33.4c-.8 0-1.5-.7-1.5-1.5s.7-1.5 1.5-1.5h25.7c.8 0 1.5.7 1.5 1.5s-.7 1.5-1.5 1.5z" data-color="1" class="icon1"></path><path d="M27 97.2h-4.1c-.8 0-1.5-.7-1.5-1.5s.7-1.5 1.5-1.5H27c.8 0 1.5.7 1.5 1.5s-.7 1.5-1.5 1.5z" data-color="1" class="icon1"></path><path d="M30.8 125.9h-4.1c-.8 0-1.5-.7-1.5-1.5s.7-1.5 1.5-1.5h4.1c.8 0 1.5.7 1.5 1.5s-.6 1.5-1.5 1.5z" data-color="1" class="icon1"></path><path d="M177.9 104.3h-5.5c-.8 0-1.5-.7-1.5-1.5s.7-1.5 1.5-1.5h5.5c.8 0 1.5.7 1.5 1.5s-.7 1.5-1.5 1.5z" data-color="1" class="icon1"></path><path d="M137.4 104.2h-9.3c-.8 0-1.5-.7-1.5-1.5s.7-1.5 1.5-1.5h9.3c.8 0 1.5.7 1.5 1.5s-.6 1.5-1.5 1.5z" data-color="1" class="icon1"></path><path d="M71.4 104.2c-.8 0-1.5-.7-1.5-1.5s.7-1.5 1.5-1.5h5c.8 0 1.5.7 1.5 1.5s-.7 1.5-1.5 1.5h-5z" data-color="1" class="icon1"></path><path d="M56.7 104.3v-3h6.7c.8 0 1.5.7 1.5 1.5s-.7 1.5-1.5 1.5h-6.7z" data-color="1" class="icon1"></path><path d="M28.2 104.4c-.8 0-1.5-.7-1.5-1.5s.7-1.5 1.5-1.5c6.4 0 12.8-.1 19.2-.1.8 0 1.5.7 1.5 1.5s-.7 1.5-1.5 1.5c-6.4 0-12.8.1-19.2.1z" data-color="1" class="icon1"></path><path d="M135.3 111.9c-.8 0-1.5-.7-1.5-1.5s.7-1.5 1.5-1.5h5.5c.8 0 1.5.7 1.5 1.5s-.7 1.5-1.5 1.5h-5.5z" data-color="1" class="icon1"></path><path d="M72.3 111.8h-6c-.8 0-1.5-.7-1.5-1.5s.7-1.5 1.5-1.5h6c.8 0 1.5.7 1.4 1.5 0 .8-.6 1.4-1.4 1.5z" data-color="1" class="icon1"></path><path d="M56.8 111.7H52c-.8 0-1.5-.7-1.5-1.5s.7-1.5 1.5-1.5h4.8c.8 0 1.5.7 1.5 1.5s-.7 1.5-1.5 1.5z" data-color="1" class="icon1"></path><path d="M22.2 111.9c-.8 0-1.5-.7-1.5-1.5s.7-1.5 1.5-1.5c2.9 0 8.8-.1 12-.1.8 0 1.5.6 1.5 1.4 0 .8-.6 1.5-1.4 1.5-3.3.1-9.2.2-12.1.2z" data-color="1" class="icon1"></path><path d="M67.7 118.9h-8.5c-.8 0-1.5-.7-1.5-1.5s.7-1.5 1.5-1.5h8.5c.8 0 1.5.7 1.5 1.5s-.6 1.5-1.5 1.5z" data-color="1" class="icon1"></path><path d="M39.4 118.9h-7.2c-.8 0-1.5-.7-1.5-1.5s.7-1.5 1.5-1.5h7.2c.8 0 1.5.7 1.5 1.5s-.6 1.5-1.5 1.5z" data-color="1" class="icon1"></path></g></g>
</svg>
</g></svg></svg>